<svg xmlns="http://www.w3.org/2000/svg" viewBox="0 0 1600 520" width="1600" height="520">
  <defs>
    <radialGradient id="studio" cx="50%" cy="44%" r="78%">
      <stop offset="0%" stop-color="#f2ede4"/><stop offset="60%" stop-color="#e4ddd0"/><stop offset="100%" stop-color="#cfc6b6"/>
    </radialGradient>
    <radialGradient id="kbody" cx="38%" cy="30%" r="80%">
      <stop offset="0%" stop-color="#fbe4a4"/><stop offset="45%" stop-color="#eab83f"/><stop offset="100%" stop-color="#bd8418"/>
    </radialGradient>
    <radialGradient id="khl" cx="50%" cy="50%" r="50%">
      <stop offset="0%" stop-color="#fff6da" stop-opacity="0.95"/><stop offset="100%" stop-color="#fff6da" stop-opacity="0"/>
    </radialGradient>
    <radialGradient id="lobe" cx="40%" cy="34%" r="72%">
      <stop offset="0%" stop-color="#fffdf8"/><stop offset="62%" stop-color="#f6ecd6"/><stop offset="100%" stop-color="#e4d2ad"/>
    </radialGradient>
    <radialGradient id="lobeHL" cx="50%" cy="50%" r="50%">
      <stop offset="0%" stop-color="#ffffff" stop-opacity="0.9"/><stop offset="100%" stop-color="#ffffff" stop-opacity="0"/>
    </radialGradient>
    <radialGradient id="charbody" cx="40%" cy="32%" r="78%">
      <stop offset="0%" stop-color="#6b5340"/><stop offset="50%" stop-color="#3c2a1d"/><stop offset="100%" stop-color="#170d07"/>
    </radialGradient>
    <radialGradient id="shadow" cx="50%" cy="50%" r="50%">
      <stop offset="0%" stop-color="#5a5044" stop-opacity="0.4"/><stop offset="70%" stop-color="#5a5044" stop-opacity="0.2"/><stop offset="100%" stop-color="#5a5044" stop-opacity="0"/>
    </radialGradient>
  </defs>
  <rect width="1600" height="520" fill="url(#studio)"/>
  <ellipse cx="600" cy="392" rx="120" ry="34" fill="url(#shadow)"/>
  <ellipse cx="820" cy="392" rx="190" ry="44" fill="url(#shadow)"/>
  <ellipse cx="1030" cy="396" rx="112" ry="32" fill="url(#shadow)"/>
  <!-- raw kernel -->
  <g transform="translate(600,250)">
    <path d="M0,-118 C56,-118 72,-40 56,64 C46,118 22,156 0,156 C-22,156 -46,118 -56,64 C-72,-40 -56,-118 0,-118 Z" fill="url(#kbody)" stroke="#9c6a12" stroke-width="3"/>
    <path d="M-2,-114 C7,-32 7,72 -2,150" fill="none" stroke="#9c6a12" stroke-width="3" stroke-linecap="round" opacity="0.75"/>
    <ellipse cx="-21" cy="-24" rx="20" ry="60" fill="url(#khl)"/>
  </g>
  <!-- popped -->
  <g transform="translate(820,235)">
    <circle cx="-78" cy="-24" r="74" fill="url(#lobe)" stroke="#dcc79e" stroke-width="2"/>
    <circle cx="82" cy="-40" r="80" fill="url(#lobe)" stroke="#dcc79e" stroke-width="2"/>
    <circle cx="96" cy="58" r="70" fill="url(#lobe)" stroke="#dcc79e" stroke-width="2"/>
    <circle cx="-96" cy="64" r="64" fill="url(#lobe)" stroke="#dcc79e" stroke-width="2"/>
    <circle cx="-8" cy="96" r="74" fill="url(#lobe)" stroke="#dcc79e" stroke-width="2"/>
    <circle cx="-40" cy="-76" r="62" fill="url(#lobe)" stroke="#dcc79e" stroke-width="2"/>
    <circle cx="32" cy="-84" r="56" fill="url(#lobe)" stroke="#dcc79e" stroke-width="2"/>
    <circle cx="-24" cy="-8" r="86" fill="url(#lobe)"/>
    <circle cx="48" cy="8" r="76" fill="url(#lobe)"/>
    <circle cx="-4" cy="44" r="64" fill="url(#lobe)"/>
    <ellipse cx="-46" cy="-36" rx="24" ry="18" fill="url(#lobeHL)"/>
    <circle cx="-52" cy="-44" r="7" fill="#ffffff" opacity="0.85"/>
  </g>
  <!-- burnt -->
  <g transform="translate(1030,262)">
    <path d="M0,-104 C50,-104 64,-36 50,58 C42,108 20,138 0,138 C-20,138 -42,108 -50,58 C-64,-36 -50,-104 0,-104 Z" fill="url(#charbody)" stroke="#0c0703" stroke-width="3"/>
    <path d="M-2,-100 C5,-24 5,64 -1,132" fill="none" stroke="#0a0502" stroke-width="3" stroke-linecap="round" opacity="0.85"/>
    <path d="M-38,-14 C-13,-26 14,-24 38,-8" fill="none" stroke="#0a0502" stroke-width="2.5" opacity="0.7"/>
    <path d="M-34,42 C-10,32 13,35 34,50" fill="none" stroke="#0a0502" stroke-width="2.5" opacity="0.7"/>
    <ellipse cx="-18" cy="0" rx="5" ry="13" fill="#7d6450" opacity="0.4"/>
  </g>
</svg>
